<svg width="30" height="30" viewBox="0 0 30 30" fill="none" xmlns="http://www.w3.org/2000/svg">
<g clip-path="url(#clip0_401_2)">
<path fill-rule="evenodd" clip-rule="evenodd" d="M5.54566 3.07617H28.4096C29.9044 3.07617 29.8236 3.6792 29.6937 5.21729L28.8433 16.0156C28.6987 17.7368 28.8213 17.3193 26.9907 17.5806L10.1748 19.7119L11.0644 22.2827C18.3597 22.2827 21.8861 22.2827 29.1766 22.2827C29.4217 23.1958 29.7549 24.6826 30 25.7007H26.9907L26.7015 24.6606C20.6241 24.6606 18.3083 24.6606 12.2284 24.6606C8.90786 24.6045 9.24114 25.5005 8.4447 22.6416L2.73975 1.97998H0V0H4.80559C5.02859 0.83252 5.33736 2.23389 5.54566 3.07617ZM13.1572 25.3711C14.4388 25.3711 15.4803 26.4087 15.4803 27.6855C15.4803 28.9648 14.4413 30 13.1572 30C11.8731 30 10.834 28.9648 10.834 27.6855C10.834 26.4087 11.8731 25.3711 13.1572 25.3711ZM22.7389 25.3711C24.0206 25.3711 25.0621 26.4087 25.0621 27.6855C25.0621 28.9648 24.0206 30 22.7389 30C21.4548 30 20.4158 28.9648 20.4158 27.6855C20.4158 26.4087 21.4548 25.3711 22.7389 25.3711ZM7.54779 10.5151H11.2482L9.90524 4.92187C8.58193 4.92187 7.27822 4.91943 6.00147 4.91943L6.45238 6.59424L6.46708 6.5918L7.54779 10.5151ZM11.8388 4.92432L13.1817 10.5151H16.7448L15.397 4.9292L11.8388 4.92432ZM17.3354 4.93164L18.6832 10.5151H22.092L20.7491 4.93652L17.3354 4.93164ZM22.6875 4.93896L24.0304 10.5176H27.4416L27.819 6.03516C27.9244 4.78516 28.1449 4.94385 26.9294 4.94385C25.5424 4.94141 24.1235 4.93896 22.6875 4.93896ZM27.3215 11.936H24.371L25.3439 15.979L25.5841 15.9473C27.0716 15.7349 26.9735 16.0742 27.0912 14.6753L27.3215 11.936ZM23.4692 16.2354L22.4351 11.936H19.0288L20.1732 16.6821L23.4692 16.2354ZM18.296 16.936L17.0879 11.9336H13.5223L14.8383 17.4048L18.296 16.936ZM12.9636 17.6611L11.5888 11.936H7.93988L9.64548 18.1128L12.9636 17.6611Z" fill="white"/>
</g>
<defs>
<clipPath id="clip0_401_2">
<rect width="30" height="30" fill="white"/>
</clipPath>
</defs>
</svg>
