<svg width="15" height="15" viewBox="0 0 15 15" fill="none" xmlns="http://www.w3.org/2000/svg">
<g clip-path="url(#clip0_102_46)">
<path fill-rule="evenodd" clip-rule="evenodd" d="M13.3054 5.75782C14.2433 5.7506 15.002 6.5063 15 7.44619C14.9978 8.38583 14.2358 9.15339 13.298 9.16073L9.18495 9.18947L9.15626 13.3147C9.14857 14.2465 8.38255 15.0011 7.4455 15C6.5082 14.9988 5.755 14.2421 5.76269 13.31L5.79113 9.21332L1.69453 9.24206C0.75687 9.2494 -0.00194944 8.49358 3.76222e-06 7.55381C0.00220112 6.61417 0.764317 5.84661 1.7021 5.8394L5.81506 5.81053L5.84387 1.68531C5.85168 0.753499 6.61758 -0.00109951 7.55463 1.20265e-06C8.49193 0.00110191 9.24513 0.757902 9.23732 1.68996L9.20887 5.78668L13.3054 5.75782Z" fill="black"/>
</g>
<defs>
<clipPath id="clip0_102_46">
<rect width="15" height="15" fill="white"/>
</clipPath>
</defs>
</svg>
